<svg width="8" height="6" viewBox="0 0 8 6" fill="none" xmlns="http://www.w3.org/2000/svg">
<path d="M5.75532 2.86184L7.54577 1.98158C7.64203 1.94211 7.8076 1.94211 7.88076 2.00132C7.95776 2.06842 8.01552 2.23816 7.99627 2.34079C7.75754 3.46974 7.50726 4.59868 7.25699 5.72368C7.21463 5.90921 7.09912 6 6.91045 6C4.96598 6 3.02151 6 1.07704 6C0.880669 6 0.765156 5.90921 0.722801 5.71184C0.480224 4.59474 0.237647 3.48158 0.0104712 2.36053C-0.0126314 2.25395 -0.00493053 2.11184 0.110582 2.00921C0.226095 1.91053 0.349309 1.92237 0.480224 1.98947C1.05394 2.27763 1.6315 2.56184 2.22832 2.85789L3.66068 0.268421C3.73384 0.130263 3.807 0 3.98412 0C4.16124 0 4.23825 0.122368 4.31525 0.260526L5.75532 2.86184Z" fill="#FFC700"/>
</svg>
