<svg width="24" height="24" viewBox="0 0 24 24" fill="none" xmlns="http://www.w3.org/2000/svg">
<path d="M20.5167 14.781C20.5167 19.4847 16.7036 23.2969 12 23.2969C7.29625 23.2969 3.48315 19.4847 3.48315 14.781C3.48315 13.1631 3.93409 11.6505 4.71803 10.3626C4.71803 10.3626 5.80239 12.6771 7.66567 11.929C8.39814 11.6349 9.23228 10.8094 8.44581 9.44803C7.59761 7.97981 8.09701 6.01383 9.91698 5.11252C12.041 4.06055 11.9887 1.299 11.9887 1.299C11.9887 1.299 15.3302 3.38396 14.1601 6.10664C13.4848 7.67803 13.4042 9.58275 14.8085 10.004C16.4896 10.5083 17.3769 8.17631 17.3769 8.17631C19.2927 9.73749 20.5167 12.1163 20.5167 14.781Z" stroke="#9EAACC" stroke-miterlimit="10"/>
</svg>
