<svg width="16" height="16" viewBox="0 0 16 16" fill="none" xmlns="http://www.w3.org/2000/svg">
<g clip-path="url(#clip0_724_744)">
<path d="M8.0002 10.7503C8.67069 10.7503 9.2157 11.2943 9.21464 11.966C9.21464 12.6368 8.67073 13.1793 8.0002 13.1793C7.32942 13.1793 6.78575 12.6365 6.78575 11.966C6.78575 11.2955 7.32942 10.7517 8.0002 10.7503ZM7.48831 2.82035H8.51314C8.99405 2.82035 9.38122 3.26696 9.38122 3.82193L9.07662 8.74167C9.07662 9.29651 8.68839 9.74325 8.00005 9.74325C7.31172 9.74325 6.92454 9.29665 6.92454 8.74167L6.61994 3.82193C6.62034 3.26723 7.00753 2.82035 7.48831 2.82035ZM8.0002 0.400513C3.80341 0.400513 0.400024 3.8025 0.400024 8.00068C0.400024 12.1975 3.80283 15.5995 8.0002 15.5995C12.197 15.6008 15.6 12.1975 15.6 8.00068C15.6 3.80253 12.1972 0.400513 8.0002 0.400513Z" fill="#9EAACC"/>
</g>
<defs>
<clipPath id="clip0_724_744">
<rect width="16" height="16" fill="white"/>
</clipPath>
</defs>
</svg>
