<svg width="122" height="40" viewBox="0 0 122 40" fill="none" xmlns="http://www.w3.org/2000/svg">
<path d="M65.45 26.793V29.2601C65.45 29.6122 65.1654 29.8999 64.8146 29.8999H51.2492C51.2305 29.8999 51.2098 29.8999 51.1911 29.8977C50.5103 29.8789 49.912 29.5268 49.5507 28.9977C49.5486 28.9935 49.5468 28.9892 49.5426 28.9852C49.3775 28.7058 49.2827 28.3789 49.2827 28.0266C49.2827 27.6371 49.4001 27.2786 49.6004 26.9785C49.6169 26.9535 49.6335 26.9286 49.6519 26.9055L59.953 12.505H50.7271C50.3784 12.505 50.0936 12.2173 50.0936 11.8631V9.39811C50.0936 9.04388 50.3784 8.75625 50.7271 8.75625H63.6569C63.6713 8.75625 63.6858 8.75625 63.7002 8.75837C63.7042 8.75837 63.7105 8.75625 63.7168 8.75837C64.4205 8.77721 65.0374 9.15638 65.3922 9.72102C65.3964 9.72739 65.3985 9.73137 65.4006 9.73562C65.5448 10.0023 65.6252 10.3066 65.6252 10.6295C65.6252 11.0169 65.5078 11.3775 65.3075 11.6776C65.2913 11.7026 65.2747 11.7257 65.256 11.7506L54.9531 26.1533H64.8146C65.1654 26.1533 65.45 26.4409 65.45 26.793Z" fill="white"/>
<path d="M74.127 26.7306C71.8034 26.7306 70.1136 24.9032 70.1136 22.3756C70.1136 19.8166 71.8034 17.9892 74.127 17.9892C76.4483 17.9892 78.1073 19.8166 78.1073 22.3756C78.1073 24.9032 76.4483 26.7306 74.127 26.7306ZM81.3966 14.8511H78.743C78.3922 14.8511 78.1073 15.1387 78.1073 15.4911V17.2558C76.9023 15.5513 75.0328 14.5449 72.86 14.5449C68.9374 14.5449 66.0712 17.8372 66.0712 22.3756C66.0712 26.9139 68.9374 30.175 72.86 30.175C75.0328 30.175 76.9023 29.1706 78.1073 27.4932V29.229C78.1073 29.5997 78.4066 29.8998 78.7719 29.8998H81.3966C81.7639 29.8998 82.0611 29.5997 82.0611 29.229V15.52C82.0611 15.1512 81.7639 14.8511 81.3966 14.8511Z" fill="white"/>
<path d="M93.8962 14.5454C91.8443 14.5454 90.1542 15.5202 89.1889 17.1359V15.4905C89.1889 15.0641 88.9482 14.8508 88.5556 14.8508H85.8999C85.5086 14.8508 85.2679 15.0641 85.2679 15.4905V29.2298C85.2679 29.6562 85.5086 29.9006 85.8999 29.9006H88.5556C88.9482 29.9006 89.1889 29.6562 89.1889 29.2298V21.0653C89.1889 19.0546 90.4567 17.7143 92.3567 17.7143C94.1974 17.7143 95.4345 19.0546 95.4345 21.0653V29.2298C95.4345 29.6002 95.7316 29.9006 96.0974 29.9006H98.7235C99.089 29.9006 99.3864 29.6002 99.3864 29.2298V20.4871C99.3864 16.9825 97.1232 14.5454 93.8962 14.5454Z" fill="white"/>
<path d="M109.634 26.7306C107.31 26.7306 105.653 24.9032 105.653 22.3756C105.653 19.8166 107.31 17.9892 109.634 17.9892C111.988 17.9892 113.647 19.8166 113.647 22.3756C113.647 24.9032 111.988 26.7306 109.634 26.7306ZM109.665 14.5449C104.989 14.5449 101.608 17.8372 101.608 22.3756C101.608 26.9139 104.989 30.175 109.665 30.175C114.312 30.175 117.69 26.9139 117.69 22.3756C117.69 17.8372 114.312 14.5449 109.665 14.5449Z" fill="white"/>
<path fill-rule="evenodd" clip-rule="evenodd" d="M24.2701 0.0400024H28.8702C30.4459 0.0399663 31.7716 0.0399353 32.8568 0.129472C33.9919 0.223128 35.0731 0.426684 36.1002 0.955153C37.6647 1.76014 38.9366 3.04462 39.7338 4.6245C40.2571 5.66168 40.4587 6.75357 40.5514 7.89987C40.6401 8.99576 40.64 10.3345 40.64 11.9257V16.3319C40.64 17.9231 40.6401 19.2619 40.5514 20.3578C40.4587 21.5041 40.2571 22.596 39.7338 23.6331C38.9366 25.213 37.6647 26.4975 36.1002 27.3025C35.0731 27.8309 33.9919 28.0345 32.8568 28.1282C31.7716 28.2177 30.4458 28.2177 28.8702 28.2176H15.1328C14.1678 28.2176 13.2971 27.633 12.9237 26.7345C12.5503 25.8359 12.7472 24.7989 13.4232 24.1035L24.7676 12.434L28.1867 15.8236L20.8419 23.379H28.7742C30.4712 23.379 31.5998 23.3772 32.4666 23.3056C33.3054 23.2364 33.6859 23.1143 33.9249 22.9913C34.5879 22.6502 35.1268 22.1059 35.4646 21.4365C35.5864 21.1951 35.7074 20.8108 35.7759 19.9637C35.8467 19.0884 35.8486 17.9487 35.8486 16.235V12.0226C35.8486 10.309 35.8467 9.16921 35.7759 8.29389C35.7074 7.44681 35.5864 7.06255 35.4646 6.82117C35.1268 6.15173 34.5879 5.60746 33.9249 5.26636C33.6859 5.14337 33.3054 5.02119 32.4666 4.95198C31.5998 4.88047 30.4712 4.87859 28.7742 4.87859H24.3667C22.6512 4.87859 21.5094 4.88049 20.6331 4.95315C19.7844 5.02352 19.4008 5.14776 19.161 5.27229C18.4941 5.61855 17.954 6.17065 17.6192 6.84829C17.4989 7.092 17.3805 7.48089 17.3212 8.33868C17.2599 9.22446 17.272 10.3774 17.2929 12.1097L17.3169 14.0993L12.5259 14.1583L12.5007 12.0711C12.4812 10.4621 12.4648 9.10919 12.5414 8.00156C12.6215 6.84361 12.8126 5.73922 13.3317 4.6885C14.1216 3.08928 15.3962 1.78631 16.9701 0.969148C18.0042 0.432255 19.0954 0.225786 20.241 0.130796C21.3368 0.039935 22.6766 0.039966 24.2701 0.0400024Z" fill="url(#paint0_linear_201_65)"/>
<path fill-rule="evenodd" clip-rule="evenodd" d="M24.2701 0.0400024H28.8702C30.4459 0.0399663 31.7716 0.0399353 32.8568 0.129472C33.9919 0.223128 35.0731 0.426684 36.1002 0.955153C37.6647 1.76014 38.9366 3.04462 39.7338 4.6245C40.2571 5.66168 40.4587 6.75357 40.5514 7.89987C40.6401 8.99576 40.64 10.3345 40.64 11.9257V16.3319C40.64 17.9231 40.6401 19.2619 40.5514 20.3578C40.4587 21.5041 40.2571 22.596 39.7338 23.6331C38.9366 25.213 37.6647 26.4975 36.1002 27.3025C35.0731 27.8309 33.9919 28.0345 32.8568 28.1282C31.7716 28.2177 30.4458 28.2177 28.8702 28.2176H15.1328C14.1678 28.2176 13.2971 27.633 12.9237 26.7345C12.5503 25.8359 12.7472 24.7989 13.4232 24.1035L24.7676 12.434L28.1867 15.8236L20.8419 23.379H28.7742C30.4712 23.379 31.5998 23.3772 32.4666 23.3056C33.3054 23.2364 33.6859 23.1143 33.9249 22.9913C34.5879 22.6502 35.1268 22.1059 35.4646 21.4365C35.5864 21.1951 35.7074 20.8108 35.7759 19.9637C35.8467 19.0884 35.8486 17.9487 35.8486 16.235V12.0226C35.8486 10.309 35.8467 9.16921 35.7759 8.29389C35.7074 7.44681 35.5864 7.06255 35.4646 6.82117C35.1268 6.15173 34.5879 5.60746 33.9249 5.26636C33.6859 5.14337 33.3054 5.02119 32.4666 4.95198C31.5998 4.88047 30.4712 4.87859 28.7742 4.87859H24.3667C22.6512 4.87859 21.5094 4.88049 20.6331 4.95315C19.7844 5.02352 19.4008 5.14776 19.161 5.27229C18.4941 5.61855 17.954 6.17065 17.6192 6.84829C17.4989 7.092 17.3805 7.48089 17.3212 8.33868C17.2599 9.22446 17.272 10.3774 17.2929 12.1097L17.3169 14.0993L12.5259 14.1583L12.5007 12.0711C12.4812 10.4621 12.4648 9.10919 12.5414 8.00156C12.6215 6.84361 12.8126 5.73922 13.3317 4.6885C14.1216 3.08928 15.3962 1.78631 16.9701 0.969148C18.0042 0.432255 19.0954 0.225786 20.241 0.130796C21.3368 0.039935 22.6766 0.039966 24.2701 0.0400024Z" fill="url(#paint1_radial_201_65)"/>
<path fill-rule="evenodd" clip-rule="evenodd" d="M24.2701 0.0400024H28.8702C30.4459 0.0399663 31.7716 0.0399353 32.8568 0.129472C33.9919 0.223128 35.0731 0.426684 36.1002 0.955153C37.6647 1.76014 38.9366 3.04462 39.7338 4.6245C40.2571 5.66168 40.4587 6.75357 40.5514 7.89987C40.6401 8.99576 40.64 10.3345 40.64 11.9257V16.3319C40.64 17.9231 40.6401 19.2619 40.5514 20.3578C40.4587 21.5041 40.2571 22.596 39.7338 23.6331C38.9366 25.213 37.6647 26.4975 36.1002 27.3025C35.0731 27.8309 33.9919 28.0345 32.8568 28.1282C31.7716 28.2177 30.4458 28.2177 28.8702 28.2176H15.1328C14.1678 28.2176 13.2971 27.633 12.9237 26.7345C12.5503 25.8359 12.7472 24.7989 13.4232 24.1035L24.7676 12.434L28.1867 15.8236L20.8419 23.379H28.7742C30.4712 23.379 31.5998 23.3772 32.4666 23.3056C33.3054 23.2364 33.6859 23.1143 33.9249 22.9913C34.5879 22.6502 35.1268 22.1059 35.4646 21.4365C35.5864 21.1951 35.7074 20.8108 35.7759 19.9637C35.8467 19.0884 35.8486 17.9487 35.8486 16.235V12.0226C35.8486 10.309 35.8467 9.16921 35.7759 8.29389C35.7074 7.44681 35.5864 7.06255 35.4646 6.82117C35.1268 6.15173 34.5879 5.60746 33.9249 5.26636C33.6859 5.14337 33.3054 5.02119 32.4666 4.95198C31.5998 4.88047 30.4712 4.87859 28.7742 4.87859H24.3667C22.6512 4.87859 21.5094 4.88049 20.6331 4.95315C19.7844 5.02352 19.4008 5.14776 19.161 5.27229C18.4941 5.61855 17.954 6.17065 17.6192 6.84829C17.4989 7.092 17.3805 7.48089 17.3212 8.33868C17.2599 9.22446 17.272 10.3774 17.2929 12.1097L17.3169 14.0993L12.5259 14.1583L12.5007 12.0711C12.4812 10.4621 12.4648 9.10919 12.5414 8.00156C12.6215 6.84361 12.8126 5.73922 13.3317 4.6885C14.1216 3.08928 15.3962 1.78631 16.9701 0.969148C18.0042 0.432255 19.0954 0.225786 20.241 0.130796C21.3368 0.039935 22.6766 0.039966 24.2701 0.0400024Z" fill="url(#paint2_radial_201_65)"/>
<path fill-rule="evenodd" clip-rule="evenodd" d="M24.2701 0.0400024H28.8702C30.4459 0.0399663 31.7716 0.0399353 32.8568 0.129472C33.9919 0.223128 35.0731 0.426684 36.1002 0.955153C37.6647 1.76014 38.9366 3.04462 39.7338 4.6245C40.2571 5.66168 40.4587 6.75357 40.5514 7.89987C40.6401 8.99576 40.64 10.3345 40.64 11.9257V16.3319C40.64 17.9231 40.6401 19.2619 40.5514 20.3578C40.4587 21.5041 40.2571 22.596 39.7338 23.6331C38.9366 25.213 37.6647 26.4975 36.1002 27.3025C35.0731 27.8309 33.9919 28.0345 32.8568 28.1282C31.7716 28.2177 30.4458 28.2177 28.8702 28.2176H15.1328C14.1678 28.2176 13.2971 27.633 12.9237 26.7345C12.5503 25.8359 12.7472 24.7989 13.4232 24.1035L24.7676 12.434L28.1867 15.8236L20.8419 23.379H28.7742C30.4712 23.379 31.5998 23.3772 32.4666 23.3056C33.3054 23.2364 33.6859 23.1143 33.9249 22.9913C34.5879 22.6502 35.1268 22.1059 35.4646 21.4365C35.5864 21.1951 35.7074 20.8108 35.7759 19.9637C35.8467 19.0884 35.8486 17.9487 35.8486 16.235V12.0226C35.8486 10.309 35.8467 9.16921 35.7759 8.29389C35.7074 7.44681 35.5864 7.06255 35.4646 6.82117C35.1268 6.15173 34.5879 5.60746 33.9249 5.26636C33.6859 5.14337 33.3054 5.02119 32.4666 4.95198C31.5998 4.88047 30.4712 4.87859 28.7742 4.87859H24.3667C22.6512 4.87859 21.5094 4.88049 20.6331 4.95315C19.7844 5.02352 19.4008 5.14776 19.161 5.27229C18.4941 5.61855 17.954 6.17065 17.6192 6.84829C17.4989 7.092 17.3805 7.48089 17.3212 8.33868C17.2599 9.22446 17.272 10.3774 17.2929 12.1097L17.3169 14.0993L12.5259 14.1583L12.5007 12.0711C12.4812 10.4621 12.4648 9.10919 12.5414 8.00156C12.6215 6.84361 12.8126 5.73922 13.3317 4.6885C14.1216 3.08928 15.3962 1.78631 16.9701 0.969148C18.0042 0.432255 19.0954 0.225786 20.241 0.130796C21.3368 0.039935 22.6766 0.039966 24.2701 0.0400024Z" fill="url(#paint3_radial_201_65)"/>
<path fill-rule="evenodd" clip-rule="evenodd" d="M9.14342 34.9752C10.0102 35.0467 11.1388 35.0486 12.8358 35.0486H17.3172C18.8645 35.0486 19.8936 35.047 20.6863 34.9872C21.4545 34.9293 21.8068 34.8267 22.0274 34.7245C22.794 34.3694 23.409 33.7484 23.7606 32.9742C23.8619 32.7514 23.9634 32.3957 24.0208 31.6199C24.08 30.8194 24.0815 29.7802 24.0815 28.2176H28.8729L28.8729 28.3059C28.873 29.757 28.873 30.978 28.7989 31.9801C28.7215 33.0272 28.5535 34.0279 28.1157 34.9917C27.2858 36.8187 25.8344 38.2844 24.0252 39.1224C23.0708 39.5646 22.0799 39.7342 21.043 39.8124C20.0506 39.8872 18.8415 39.8872 17.4046 39.8871L12.7398 39.8871C11.1641 39.8872 9.83843 39.8872 8.75325 39.7977C7.61812 39.704 6.53687 39.5005 5.5098 38.972C3.94533 38.167 2.67337 36.8825 1.87623 35.3027C1.35291 34.2655 1.15134 33.1736 1.0586 32.0273C0.969936 30.9314 0.969969 29.5926 0.970005 28.0014V23.5952C0.969969 22.004 0.969936 20.6653 1.0586 19.5694C1.15134 18.4231 1.35292 17.3312 1.87623 16.294C2.67337 14.7141 3.94533 13.4297 5.5098 12.6247C6.53687 12.0962 7.61812 11.8926 8.75325 11.799C9.83845 11.7095 11.1642 11.7095 12.7398 11.7095H26.4772C27.8003 11.7095 28.8729 12.7927 28.8729 14.1288C28.8729 15.465 27.8003 16.5481 26.4772 16.5481H12.8358C11.1388 16.5481 10.0102 16.55 9.14342 16.6215C8.3046 16.6907 7.92409 16.8129 7.68506 16.9359C7.02215 17.277 6.48318 17.8212 6.14541 18.4907C6.02361 18.7321 5.90263 19.1163 5.8341 19.9634C5.76328 20.8387 5.76141 21.9785 5.76141 23.6921V27.9045C5.76141 29.6182 5.76328 30.7579 5.8341 31.6333C5.90263 32.4803 6.02361 32.8646 6.14541 33.106C6.48318 33.7754 7.02215 34.3197 7.68506 34.6608C7.9241 34.7838 8.3046 34.906 9.14342 34.9752Z" fill="url(#paint4_linear_201_65)"/>
<path fill-rule="evenodd" clip-rule="evenodd" d="M9.14342 34.9752C10.0102 35.0467 11.1388 35.0486 12.8358 35.0486H17.3172C18.8645 35.0486 19.8936 35.047 20.6863 34.9872C21.4545 34.9293 21.8068 34.8267 22.0274 34.7245C22.794 34.3694 23.409 33.7484 23.7606 32.9742C23.8619 32.7514 23.9634 32.3957 24.0208 31.6199C24.08 30.8194 24.0815 29.7802 24.0815 28.2176H28.8729L28.8729 28.3059C28.873 29.757 28.873 30.978 28.7989 31.9801C28.7215 33.0272 28.5535 34.0279 28.1157 34.9917C27.2858 36.8187 25.8344 38.2844 24.0252 39.1224C23.0708 39.5646 22.0799 39.7342 21.043 39.8124C20.0506 39.8872 18.8415 39.8872 17.4046 39.8871L12.7398 39.8871C11.1641 39.8872 9.83843 39.8872 8.75325 39.7977C7.61812 39.704 6.53687 39.5005 5.5098 38.972C3.94533 38.167 2.67337 36.8825 1.87623 35.3027C1.35291 34.2655 1.15134 33.1736 1.0586 32.0273C0.969936 30.9314 0.969969 29.5926 0.970005 28.0014V23.5952C0.969969 22.004 0.969936 20.6653 1.0586 19.5694C1.15134 18.4231 1.35292 17.3312 1.87623 16.294C2.67337 14.7141 3.94533 13.4297 5.5098 12.6247C6.53687 12.0962 7.61812 11.8926 8.75325 11.799C9.83845 11.7095 11.1642 11.7095 12.7398 11.7095H26.4772C27.8003 11.7095 28.8729 12.7927 28.8729 14.1288C28.8729 15.465 27.8003 16.5481 26.4772 16.5481H12.8358C11.1388 16.5481 10.0102 16.55 9.14342 16.6215C8.3046 16.6907 7.92409 16.8129 7.68506 16.9359C7.02215 17.277 6.48318 17.8212 6.14541 18.4907C6.02361 18.7321 5.90263 19.1163 5.8341 19.9634C5.76328 20.8387 5.76141 21.9785 5.76141 23.6921V27.9045C5.76141 29.6182 5.76328 30.7579 5.8341 31.6333C5.90263 32.4803 6.02361 32.8646 6.14541 33.106C6.48318 33.7754 7.02215 34.3197 7.68506 34.6608C7.9241 34.7838 8.3046 34.906 9.14342 34.9752Z" fill="url(#paint5_radial_201_65)"/>
<rect x="83.5" y="1.6" width="38" height="9" rx="4.5" fill="url(#paint6_linear_201_65)"/>
<path d="M87.9915 8.6V4.5104H86.3869V3.5661H90.6185V4.5104H89.0139V8.6H87.9915ZM91.2685 8.6V3.5661H94.925V4.4749H92.2412V5.689H94.499V6.5481H92.2412V7.6983H95.0386V8.6H91.2685ZM97.6641 8.6994C97.2334 8.6994 96.8571 8.6639 96.5352 8.5929C96.2181 8.51717 95.8773 8.39647 95.5128 8.2308L95.8962 7.3646C96.5068 7.65807 97.0795 7.8048 97.6144 7.8048C97.8984 7.8048 98.1161 7.7551 98.2676 7.6557C98.4238 7.55157 98.5019 7.4001 98.5019 7.2013C98.5019 7.0167 98.4191 6.87943 98.2534 6.7895C98.0925 6.69483 97.8203 6.612 97.4369 6.541C97.134 6.47947 96.8784 6.4132 96.6701 6.3422C96.4666 6.2712 96.2772 6.1789 96.1021 6.0653C95.927 5.94697 95.7968 5.80023 95.7116 5.6251C95.6264 5.44997 95.5838 5.2417 95.5838 5.0003C95.5838 4.5317 95.7447 4.16013 96.0666 3.8856C96.3885 3.61107 96.8571 3.4738 97.4724 3.4738C98.2013 3.4738 98.8332 3.60397 99.3681 3.8643L98.9492 4.7092C98.4617 4.49147 97.9718 4.3826 97.4795 4.3826C97.205 4.3826 96.992 4.43467 96.8405 4.5388C96.6938 4.64293 96.6204 4.77547 96.6204 4.9364C96.6204 5.121 96.7127 5.25827 96.8973 5.3482C97.0819 5.4334 97.399 5.5257 97.8487 5.6251C98.1232 5.6819 98.3528 5.74343 98.5374 5.8097C98.722 5.87597 98.8971 5.9659 99.0628 6.0795C99.2285 6.18837 99.3515 6.33037 99.432 6.5055C99.5125 6.68063 99.5527 6.88653 99.5527 7.1232C99.5527 7.64387 99.3918 8.03673 99.0699 8.3018C98.7528 8.56687 98.2842 8.6994 97.6641 8.6994ZM101.443 8.6V4.5104H99.838V3.5661H104.07V4.5104H102.465V8.6H101.443ZM108.241 3.5661H109.235V8.6284H108.717L105.714 5.4334V8.6H104.72V3.5377H105.224L108.241 6.7327V3.5661ZM110.197 8.6V3.5661H113.854V4.4749H111.17V5.689H113.428V6.5481H111.17V7.6983H113.967V8.6H110.197ZM115.989 8.6V4.5104H114.385V3.5661H118.616V4.5104H117.012V8.6H115.989Z" fill="white"/>
<defs>
<linearGradient id="paint0_linear_201_65" x1="19.8719" y1="27.9988" x2="20.192" y2="0.00411228" gradientUnits="userSpaceOnUse">
<stop offset="0.43118" stop-color="#498FFD"/>
<stop offset="1" stop-color="#16D1D6"/>
</linearGradient>
<radialGradient id="paint1_radial_201_65" cx="0" cy="0" r="1" gradientUnits="userSpaceOnUse" gradientTransform="translate(12.152 8.57139) rotate(-15.561) scale(18.1048 18.0645)">
<stop stop-color="#18CFD7"/>
<stop offset="1" stop-color="#18CFD7" stop-opacity="0"/>
</radialGradient>
<radialGradient id="paint2_radial_201_65" cx="0" cy="0" r="1" gradientUnits="userSpaceOnUse" gradientTransform="translate(22.7311 16.5709) rotate(152.372) scale(6.77706 6.76347)">
<stop stop-color="#4990FE"/>
<stop offset="0.353962" stop-color="#4990FE"/>
<stop offset="1" stop-color="#4990FE" stop-opacity="0"/>
</radialGradient>
<radialGradient id="paint3_radial_201_65" cx="0" cy="0" r="1" gradientUnits="userSpaceOnUse" gradientTransform="translate(14.4394 25.7133) rotate(-45.9169) scale(12.3295 12.3105)">
<stop stop-color="#4990FE"/>
<stop offset="0.405688" stop-color="#4990FE"/>
<stop offset="1" stop-color="#4990FE" stop-opacity="0"/>
</radialGradient>
<linearGradient id="paint4_linear_201_65" x1="29.0214" y1="39.9981" x2="29.1243" y2="11.4287" gradientUnits="userSpaceOnUse">
<stop stop-color="#2950FF"/>
<stop offset="0.821717" stop-color="#498FFD"/>
</linearGradient>
<radialGradient id="paint5_radial_201_65" cx="0" cy="0" r="1" gradientUnits="userSpaceOnUse" gradientTransform="translate(29.0214 27.9988) rotate(129.311) scale(12.1854 12.0591)">
<stop offset="0.337169" stop-color="#2950FF"/>
<stop offset="0.792226" stop-color="#2950FF" stop-opacity="0"/>
</radialGradient>
<linearGradient id="paint6_linear_201_65" x1="83.5" y1="10.6" x2="91.6011" y2="-10.1007" gradientUnits="userSpaceOnUse">
<stop stop-color="#4D89FF"/>
<stop offset="1" stop-color="#16D1D6"/>
</linearGradient>
</defs>
</svg>
